<svg xmlns="http://www.w3.org/2000/svg" width="960" height="660" viewBox="0 0 960 660"><defs><marker id="arr" viewBox="0 0 10 10" refX="9" refY="5" markerWidth="7" markerHeight="7" orient="auto-start-reverse"><path d="M 0 0 L 10 5 L 0 10 z" fill="#166B70"/></marker></defs><rect width="100%" height="100%" fill="white"/>
<text x="25" y="37" font-family="Noto Sans CJK SC, sans-serif" font-size="25" font-weight="bold" fill="#203B4A" text-anchor="start">装配处安排拥有者 流程依赖小而清楚的能力</text>
<rect x="24" y="70" width="912" height="523" rx="8" fill="#F7F9FA" stroke="#B6CCD4" stroke-width="1.5"/>
<text x="48" y="112" font-family="Noto Sans CJK SC, sans-serif" font-size="24" font-weight="bold" fill="#203B4A" text-anchor="start">组合根拥有这些组件</text>
<rect x="341" y="145" width="289" height="88" rx="8" fill="#EFF7F5" stroke="#B6CCD4" stroke-width="1.5"/>
<text x="485.5" y="182.0" font-family="Noto Sans CJK SC, sans-serif" font-size="22" font-weight="normal" fill="#203B4A" text-anchor="middle">测试流程</text>
<text x="485.5" y="211.0" font-family="Noto Sans CJK SC, sans-serif" font-size="22" font-weight="normal" fill="#203B4A" text-anchor="middle">借用能力并保留结果</text>
<rect x="42" y="320" width="261" height="93" rx="8" fill="#E9F1F5" stroke="#B6CCD4" stroke-width="1.5"/>
<text x="172.5" y="359.5" font-family="Noto Sans CJK SC, sans-serif" font-size="21" font-weight="normal" fill="#203B4A" text-anchor="middle">MeasurementPort</text>
<text x="172.5" y="388.5" font-family="Noto Sans CJK SC, sans-serif" font-size="21" font-weight="normal" fill="#203B4A" text-anchor="middle">设备适配器实现</text>
<rect x="350" y="320" width="262" height="93" rx="8" fill="#E9F1F5" stroke="#B6CCD4" stroke-width="1.5"/>
<text x="481.0" y="359.5" font-family="Noto Sans CJK SC, sans-serif" font-size="21" font-weight="normal" fill="#203B4A" text-anchor="middle">判定函数</text>
<text x="481.0" y="388.5" font-family="Noto Sans CJK SC, sans-serif" font-size="21" font-weight="normal" fill="#203B4A" text-anchor="middle">冻结的限值配置</text>
<rect x="661" y="320" width="255" height="93" rx="8" fill="#E9F1F5" stroke="#B6CCD4" stroke-width="1.5"/>
<text x="788.5" y="359.5" font-family="Noto Sans CJK SC, sans-serif" font-size="21" font-weight="normal" fill="#203B4A" text-anchor="middle">记录能力</text>
<text x="788.5" y="388.5" font-family="Noto Sans CJK SC, sans-serif" font-size="21" font-weight="normal" fill="#203B4A" text-anchor="middle">显式提交与结果</text>
<path d="M 484 233 L 484 270 L 172 270 L 172 320" stroke="#166B70" stroke-width="2" fill="none" marker-end="url(#arr)"/>
<path d="M 484 233 L 484 270 L 481 270 L 481 320" stroke="#166B70" stroke-width="2" fill="none" marker-end="url(#arr)"/>
<path d="M 484 233 L 484 270 L 789 270 L 789 320" stroke="#166B70" stroke-width="2" fill="none" marker-end="url(#arr)"/>
<text x="724" y="254" font-family="Noto Sans CJK SC, sans-serif" font-size="19" font-weight="normal" fill="#203B4A" text-anchor="start">实线：调用</text>
<rect x="43" y="490" width="260" height="71" rx="8" fill="#E9F1F5" stroke="#B6CCD4" stroke-width="1.5"/>
<text x="173.0" y="532.5" font-family="Noto Sans CJK SC, sans-serif" font-size="23" font-weight="normal" fill="#203B4A" text-anchor="middle">厂商 SDK</text>
<line x1="172" y1="413" x2="172" y2="490" stroke="#166B70" stroke-width="2" marker-end="url(#arr)"/>
<rect x="415" y="490" width="500" height="71" rx="8" fill="#EFF7F5" stroke="#B6CCD4" stroke-width="1.5"/>
<text x="665.0" y="532.5" font-family="Noto Sans CJK SC, sans-serif" font-size="22" font-weight="normal" fill="#203B4A" text-anchor="middle">界面读取不可变结果快照</text>
<path d="M 630 184 L 926 184 L 926 457 L 665 457 L 665 490" stroke="#166B70" stroke-width="2" fill="none" marker-end="url(#arr)" stroke-dasharray="7 5"/>
<text x="726" y="442" font-family="Noto Sans CJK SC, sans-serif" font-size="19" font-weight="normal" fill="#203B4A" text-anchor="start">虚线：值快照</text>
<text x="25" y="636" font-family="Noto Sans CJK SC, sans-serif" font-size="21" font-weight="normal" fill="#596770" text-anchor="start">外框表达拥有关系；组件之间的访问不自动转移资源所有权</text>
</svg>